<svg version="1.1" id="Layer_1" xmlns="http://www.w3.org/2000/svg" x="0px" y="0px"
                                        viewBox="0 0 172.9 32.9" enableBackground="new 0 0 172.9 32.9">
                                    <g id="bison-text">
                                        <path d="M75.1,32.2h-6.7V1h7.2v10.3c1.6-1.5,3.8-2.4,6-2.3c6.6,0,10.7,4.9,10.7,11.9s-4.6,11.9-11.1,11.9
                                            c-2.3,0.1-4.5-0.8-6.1-2.3L75.1,32.2z M80.2,26.4c2.9,0,4.9-2.2,4.9-5.5s-1.9-5.6-4.9-5.6s-4.9,2-4.9,5.6
                                            C75.4,23.9,77.1,26.4,80.2,26.4L80.2,26.4z"/>
                                        <path d="M94.9,4.2c-0.1-2.2,1.7-4,3.9-4.1s4,1.7,4.1,3.9s-1.7,4-3.9,4.1h-0.1c-2.1,0.1-3.9-1.6-4-3.7
                                            C94.9,4.4,94.9,4.3,94.9,4.2z M102.6,32.2h-7.2V9.5h7.2V32.2z"/>
                                        <path d="M105.2,28.8l4.1-3.9c1.3,1.3,3.1,2,5,2c1.4,0,2-0.4,2-1.2c0-2.6-10.4-1.5-10.4-9.7c0-4.4,3.8-7,8.7-7
                                            c3.2-0.1,6.2,1.3,8.1,3.9l-4.7,3.7c-1-1.1-2.3-1.7-3.8-1.8c-1,0-1.6,0.4-1.6,1.1c0,2.9,10.4,1.2,10.4,9.4c0,4.6-4.1,7.5-9.2,7.5
                                            C110.6,32.9,107.4,31.4,105.2,28.8z"/>
                                        <path d="M137,8.9c7.3,0,12.4,5,12.4,11.9s-5.3,11.9-12.4,11.9s-12.3-5-12.3-11.8S130,8.9,137,8.9z M137,26.4
                                            c2.9,0,5.2-2.4,5.2-5.3c0-0.1,0-0.2,0-0.3c0.2-2.9-2-5.3-4.8-5.5c-0.1,0-0.3,0-0.4,0c-3,0-5.1,2.3-5.1,5.6S134.1,26.4,137,26.4
                                            L137,26.4z"/>
                                        <path d="M165.7,18.7c0-2.1-1.2-3.2-3-3.2c-1.7-0.1-3.1,1.2-3.1,2.9c0,0.1,0,0.2,0,0.4v13.5h-7.2V9.7h7V12
                                            c1.3-1.9,3.4-2.9,5.7-2.9c7.1,0,7.8,6,7.8,10.7v12.6h-7.2L165.7,18.7z"/>
                                    </g>
                                    <g id="bison-logo">
                                        <path d="M28,24.8c0.5,0.7,1.3,1,2.2,0.9c-0.3,0.4-0.8,0.6-1.4,0.6c0,0,0.8,0.4,1.2,0.2c0,0-0.7,0.8-2.7,0.5"/>
                                        <path d="M1.3,16.2c1.6,1.6,1.8,2.3,1.7,2.6C3,19.4,3.2,21,3.2,21c0.2,0.5,0.7,0.9,1.3,0.9h0.7
                                            c0.2,0,0.3,0.1,0.3,0.3s0.1,0.3,0.3,0.4C6.2,22.7,7,22.4,7,22.9v1.3c0,0.3,0.2,0.5,0.4,0.6C8.2,25,8.8,25.6,9,26.4
                                            c0,0,0,0.1,0.1,0.1c0,0,0.1,0,0.1-0.1c0.4-1,1.8-4.3,3.5-4.3c1-0.1,2,0.4,2.5,1.3l-0.1,4.2c0,0-0.1,0.8,0.2,1.1
                                            c0.1,0.1,0.2,0.3,0.2,0.5c-0.1,0.4-0.4,2.5,0,3l2.2-1c0.3-0.2-0.5-0.4-0.5-1s0.3-1.3,0.1-1.5c-0.2-0.1-0.2-0.4,0-0.5l0,0
                                            c1-1,2.3-1.7,3.7-2c2.4-0.6,2.5-2,2.5-2.4c0.1,0.6,0.3,3.3,0.9,3.9c0.6,0.6,0.8,1.6,0.3,2.4c-0.5,0.9-1.5,2.8-1.5,2.8H26l-0.2-0.5
                                            c-0.2-0.4,0-0.9,0.3-1.1h0.1c0.5-0.2,0.8-0.8,0.7-1.3c0,0-0.4-1.1,0.3-0.6c0.2,0.1,0.4,0.1,0.5,0c0.4-0.5,0.6-1,0.8-1.5
                                            c0-0.1,0-0.2,0-0.3l-0.2-0.7c0-0.1,0-0.2,0-0.4l0.2-0.4c0.1-0.2,0.1-0.3,0-0.5c-0.2-0.5-0.5-0.9-0.8-1.2c-0.7-0.7-0.3-2.4,0-2.8
                                            c0.1-0.1,0.2-0.2,0.3-0.1c1.2,0.2,7.3,1.2,8.4,1c1.1-0.3,2.2-0.8,3.2-1.5c0.3-0.2,0.8-0.1,1,0.2c0,0.1,0.1,0.2,0.1,0.3
                                            c0.3,1.6,0.8,4.5,0.5,5.5c-0.3,1.2-2.4,3.6-2.8,4.1c0,0.1-0.1,0.1-0.2,0.1c-0.4,0.2-1.7,1-1.7,1.6h2.7v-0.4c0-0.1,0.1-0.1,0.1-0.1
                                            s0,0,0.1,0c0.2,0.1,0.4,0.1,0.6,0.1c0.3-0.1,2.3-4.9,3.5-5.2s0.8-1.9,0.8-1.9c-0.2-1.2-0.1-2.5,0.3-3.6c0.2-0.3,0.5-0.4,0.8-0.3
                                            c0.1,0,0.1,0.1,0.2,0.1l1.5,1.6c0.5,0.4,1,0.7,1.5,1c0.4,0.2,0.7,0.6,0.9,1l1.4,4l-1.1,2.4h2.3c0.4-0.5,0.4-1.1,0.2-1.7
                                            c0-0.1,0-0.1,0-0.2c0,0,0,0,0.1,0h0.2c0.1,0,0.1-0.1,0.1-0.1s0,0,0-0.1c-1.3-2.1-2.1-4.4-2.1-6.9c0,0-0.1-1-0.7-1
                                            c-0.4,0-1.1-0.8-1.5-1.5c-0.3-0.4-0.4-0.8-0.5-1.3v-1.6c0-0.3,0.1-0.6,0.2-0.9c0.3-0.7,1-2.3,0.7-3.3c0-0.2-0.1-0.4-0.2-0.5
                                            c-0.1-0.2-0.1-0.3-0.2-0.5c-0.3-0.6-0.7-1.1-1.2-1.6h-0.5c-0.1-0.1-0.2-0.2-0.4-0.3l-2.4-1.7l-0.3-0.2c0,0-2.2-1.8-3.6-1.7
                                            c-1.1,0-5.9-2.6-7.6-3.6C32,2.6,31.5,2.3,31,2.2c-2.1-0.7-8.2-2.6-9.7-2.1c-1.8,0.4-3.6,0.5-5.5,0.4c-0.5,0-0.9,0.2-1.2,0.5
                                            c-1.4,1.2-2.6,2.6-3.7,4.1c-0.2,0.3-0.6,0.5-1,0.5L7.2,5.2c-0.4,0-0.8,0-1.2,0.1c0.8,1,1.3,2.2,1.5,3.4c0.2,1.4-0.8,2.7-2.2,2.9
                                            l0,0c-0.2,0-2.9-0.1-1.1-2.6c0.5-0.9,0.7-2.1,0.4-3.1c-0.5,0.3-1,0.8-1.3,1.2c-1.1,1.5-2,2.6-2.5,3.2c-0.4,0.4-0.6,1-0.7,1.5
                                            C-0.2,13.5,0.2,15.1,1.3,16.2z"/>
                                        <path d="M20.9,27.1c-0.5-0.8-1.4-1.1-2.2-0.9c-0.3,0.1,0.3-0.6-0.1-0.6c0,0,2.8-0.2,2.7-1.2
                                            C21.2,23.5,20.9,27.1,20.9,27.1z"/>
                                        <path d="M58.4,14.6c0,0-0.2,0.4-1,0.3c-0.8-0.1-1-1.2-2.6-0.1c-1.1,1.1,0.4,1.6,0.4,1.6S57,17.3,58.4,14.6z"/>
                                        <path d="M2.8,1.3c0.8,1.6,1.5,3.2,1.9,4.9c0.5-0.3,1-0.5,1.5-0.6C5.4,4.3,3.8,2,3,1.2c-0.1-0.1-0.2,0-0.3,0
                                            C2.8,1.2,2.8,1.2,2.8,1.3z"/>
                                        <path d="M44.2,8.5v0.9c1.3,1.1,2.8,2.1,4.3,3c5.2,3.1,10.1,4.5,5.5,2.3c-2.5-1.2-4.8-2.7-7-4.4l0,0
                                            c-0.1-0.1-0.2-0.2-0.4-0.3L44.2,8.5z"/>
                                    </g>
                                    </svg>